<?xml version="1.0" encoding="UTF-8"?>
<svg id="Lag_1" data-name="Lag 1" xmlns="http://www.w3.org/2000/svg" viewBox="0 0 2032.25 884.77">
  <defs>
    <style>
      .cls-1 {
        font-family: Oi-Regular, Oi;
        font-size: 79.37px;
      }

      .cls-1, .cls-2 {
        fill: #ff69dc;
      }

      .cls-3 {
        fill: #ffcaf5;
      }

      .cls-3, .cls-4 {
        stroke: #f9f;
        stroke-miterlimit: 10;
      }

      .cls-4 {
        fill: #ffa0dc;
      }

      .cls-2, .cls-5 {
        stroke-width: 0px;
      }

      .cls-5 {
        fill: #f9f;
      }
    </style>
  </defs>
  <g>
    <path class="cls-4" d="m155.39,401.29c-15.28,6.37-30.05,14.02-44.22,22.56,8.89-13.08,18.86-25.54,30.08-36.7,11.28-11.08,23.51-21.34,36.7-30.08-8.67,14.1-16.06,29.02-22.56,44.22Z"/>
    <path class="cls-3" d="m205,384.26c-16.92,4.83-33.3,10.43-49.61,17.03,6.5-15.21,13.89-30.12,22.56-44.22,13.28-8.81,27.35-16.62,42.09-22.71-5.89,16.37-10.63,33.08-15.04,49.9Z"/>
    <path class="cls-4" d="m259.02,373.5c-18.27,2.68-36.11,6.22-54.01,10.76,4.41-16.82,9.15-33.53,15.04-49.9,14.98-6.2,30.57-11.22,46.49-14.35-2.85,17.79-5.33,35.61-7.52,53.49Z"/>
    <path class="cls-3" d="m316.44,369.74c-19.29.28-38.26,1.5-57.42,3.75,2.19-17.88,4.67-35.7,7.52-53.49,16.39-3.24,33.17-5.12,49.9-5v54.74Z"/>
    <path class="cls-4" d="m193.65,439.55c-18.59,3.19-36.95,6.93-55.29,11.36,4.83-16.92,10.43-33.31,17.03-49.61,16.31-6.61,32.7-12.2,49.61-17.03-4.42,18.33-8.17,36.7-11.36,55.29Z"/>
    <path class="cls-3" d="m138.35,450.91c-16.84,4.42-33.48,9.24-49.9,15.04,6.26-14.66,13.73-28.9,22.71-42.09,14.17-8.54,28.95-16.19,44.22-22.56-6.6,16.3-12.2,32.69-17.03,49.61Z"/>
    <path class="cls-4" d="m316.44,429.87c-21.09.16-42.07.98-63.1,2.5,1.57-19.66,3.37-39.29,5.68-58.88,19.16-2.25,38.14-3.47,57.42-3.75v60.13Z"/>
    <path class="cls-3" d="m253.34,432.38c-19.98,1.75-39.9,3.92-59.69,7.18,3.19-18.59,6.93-36.96,11.36-55.29,17.9-4.55,35.75-8.08,54.01-10.76-2.31,19.59-4.11,39.22-5.68,58.88Z"/>
    <path class="cls-4" d="m127.59,504.92c-17.88,2.19-35.7,4.67-53.49,7.52,3.32-15.87,7.96-31.57,14.35-46.49,16.42-5.8,33.06-10.63,49.9-15.04-4.55,17.89-8.08,35.74-10.76,54.01Z"/>
    <path class="cls-3" d="m186.47,499.24c-19.66,1.57-39.3,3.35-58.88,5.68,2.68-18.27,6.22-36.12,10.76-54.01,18.34-4.43,36.7-8.17,55.29-11.36-3.21,19.81-5.43,39.71-7.18,59.69Z"/>
    <path class="cls-4" d="m249.75,495.66c-21.12.87-42.2,2.06-63.28,3.59,1.75-19.98,3.97-39.88,7.18-59.69,19.79-3.25,39.71-5.43,59.69-7.18-1.53,21.08-2.72,42.16-3.59,63.28Z"/>
    <path class="cls-3" d="m316.44,494.41c-22.24.08-44.46.49-66.69,1.25.87-21.12,2.06-42.2,3.59-63.28,21.03-1.52,42.01-2.35,63.1-2.5v64.53Z"/>
    <path class="cls-4" d="m183.97,562.35h-60.13c.28-19.29,1.5-38.27,3.75-57.42,19.58-2.33,39.22-4.11,58.88-5.68-1.53,21.04-2.35,42.01-2.5,63.1Z"/>
    <path class="cls-3" d="m123.84,562.35h-54.74c.1-16.71,1.56-33.53,5-49.9,17.79-2.85,35.61-5.33,53.49-7.52-2.25,19.16-3.47,38.13-3.75,57.42Z"/>
    <path class="cls-4" d="m316.44,562.35h-67.94c.08-22.24.49-44.46,1.25-66.69,22.23-.76,44.45-1.17,66.69-1.25v67.94Z"/>
    <path class="cls-3" d="m248.5,562.35h-64.53c.16-21.09.98-42.07,2.5-63.1,21.08-1.53,42.16-2.72,63.28-3.59-.76,22.23-1.17,44.45-1.25,66.69Z"/>
    <path class="cls-4" d="m127.59,619.77c-17.88-2.19-35.7-4.67-53.49-7.52-3.24-16.39-5.12-33.17-5-49.9h54.74c.28,19.29,1.5,38.26,3.75,57.42Z"/>
    <path class="cls-3" d="m186.47,625.45c-19.66-1.57-39.3-3.35-58.88-5.68-2.25-19.16-3.47-38.14-3.75-57.42h60.13c.16,21.09.98,42.07,2.5,63.1Z"/>
    <path class="cls-4" d="m249.75,629.04c-21.12-.87-42.2-2.06-63.28-3.59-1.52-21.03-2.35-42.01-2.5-63.1h64.53c.08,22.24.49,44.46,1.25,66.69Z"/>
    <path class="cls-3" d="m316.44,630.29c-22.24-.08-44.46-.49-66.69-1.25-.76-22.23-1.17-44.45-1.25-66.69h67.94v67.94Z"/>
    <path class="cls-4" d="m193.65,685.14c-18.59-3.19-36.95-6.93-55.29-11.36-4.55-17.9-8.08-35.75-10.76-54.01,19.58,2.33,39.22,4.11,58.88,5.68,1.75,19.98,3.92,39.9,7.18,59.69Z"/>
    <path class="cls-3" d="m138.35,673.78c-16.84-4.42-33.48-9.24-49.9-15.04-6.2-14.98-11.22-30.57-14.35-46.49,17.79,2.85,35.61,5.33,53.49,7.52,2.68,18.27,6.22,36.11,10.76,54.01Z"/>
    <path class="cls-4" d="m316.44,694.82c-21.09-.16-42.07-.98-63.1-2.5-1.53-21.08-2.72-42.16-3.59-63.28,22.23.76,44.45,1.17,66.69,1.25v64.53Z"/>
    <path class="cls-3" d="m253.34,692.32c-19.98-1.75-39.9-3.92-59.69-7.18-3.25-19.79-5.43-39.71-7.18-59.69,21.08,1.53,42.16,2.72,63.28,3.59.87,21.12,2.06,42.2,3.59,63.28Z"/>
    <path class="cls-4" d="m155.39,723.4c-15.28-6.37-30.05-14.02-44.22-22.56-8.81-13.28-16.62-27.35-22.71-42.09,16.42,5.8,33.06,10.63,49.9,15.04,4.83,16.92,10.43,33.3,17.03,49.61Z"/>
    <path class="cls-3" d="m205,740.43c-16.92-4.83-33.3-10.43-49.61-17.03-6.61-16.31-12.2-32.7-17.03-49.61,18.34,4.43,36.7,8.17,55.29,11.36,3.19,18.59,6.93,36.95,11.36,55.29Z"/>
    <path class="cls-4" d="m259.02,751.2c-18.27-2.68-36.11-6.22-54.01-10.76-4.43-18.34-8.17-36.7-11.36-55.29,19.79,3.25,39.71,5.43,59.69,7.18,1.57,19.66,3.35,39.3,5.68,58.88Z"/>
    <path class="cls-3" d="m316.44,754.95c-19.29-.28-38.26-1.5-57.42-3.75-2.33-19.58-4.11-39.22-5.68-58.88,21.03,1.52,42.01,2.35,63.1,2.5v60.13Z"/>
    <path class="cls-4" d="m220.05,790.33c-14.75-6.09-28.81-13.9-42.09-22.71-8.54-14.17-16.19-28.95-22.56-44.22,16.31,6.61,32.7,12.2,49.61,17.03,4.42,16.84,9.24,33.48,15.04,49.9Z"/>
    <path class="cls-3" d="m177.95,767.62c-13.2-8.74-25.42-19-36.7-30.08-11.08-11.28-21.34-23.51-30.08-36.7,14.17,8.54,28.95,16.19,44.22,22.56,6.37,15.28,14.02,30.05,22.56,44.22Z"/>
    <path class="cls-4" d="m316.44,809.69c-16.73.11-33.51-1.77-49.9-5-2.85-17.79-5.33-35.61-7.52-53.49,19.16,2.25,38.14,3.47,57.42,3.75v54.74Z"/>
    <path class="cls-3" d="m266.54,804.69c-15.93-3.13-31.51-8.15-46.49-14.35-5.8-16.42-10.63-33.06-15.04-49.9,17.9,4.55,35.75,8.08,54.01,10.76,2.19,17.88,4.67,35.7,7.52,53.49Z"/>
    <path class="cls-4" d="m373.86,373.5c-19.16-2.25-38.13-3.47-57.42-3.75v-54.74c16.71.1,33.53,1.56,49.9,5,2.85,17.79,5.33,35.61,7.52,53.49Z"/>
    <path class="cls-3" d="m427.88,384.26c-17.89-4.55-35.74-8.08-54.01-10.76-2.19-17.88-4.67-35.7-7.52-53.49,15.87,3.32,31.57,7.96,46.49,14.35,5.89,16.37,10.63,33.08,15.04,49.9Z"/>
    <path class="cls-4" d="m477.49,401.29c-16.3-6.6-32.69-12.2-49.61-17.03-4.41-16.82-9.15-33.53-15.04-49.9,14.66,6.26,28.9,13.73,42.09,22.71,8.67,14.1,16.06,29.02,22.56,44.22Z"/>
    <path class="cls-3" d="m521.72,423.86c-14.1-8.67-29.02-16.06-44.22-22.56-6.5-15.21-13.89-30.12-22.56-44.22,13.08,8.89,25.54,18.86,36.7,30.08,11.22,11.16,21.2,23.62,30.08,36.7Z"/>
    <path class="cls-4" d="m439.23,439.55c-19.81-3.21-39.71-5.43-59.69-7.18-1.57-19.66-3.37-39.29-5.68-58.88,18.27,2.68,36.12,6.22,54.01,10.76,4.42,18.33,8.17,36.7,11.36,55.29Z"/>
    <path class="cls-3" d="m379.54,432.38c-21.04-1.53-42.01-2.35-63.1-2.5v-60.13c19.29.28,38.27,1.5,57.42,3.75,2.31,19.59,4.11,39.22,5.68,58.88Z"/>
    <path class="cls-4" d="m544.43,465.95c-16.37-5.89-33.08-10.63-49.9-15.04-4.83-16.92-10.43-33.31-17.03-49.61,15.21,6.5,30.12,13.89,44.22,22.56,8.98,13.19,16.45,27.44,22.71,42.09Z"/>
    <path class="cls-3" d="m494.53,450.91c-18.33-4.42-36.7-8.17-55.29-11.36-3.19-18.59-6.93-36.96-11.36-55.29,16.92,4.83,33.31,10.43,49.61,17.03,6.6,16.3,12.2,32.69,17.03,49.61Z"/>
    <path class="cls-4" d="m383.13,495.66c-22.23-.76-44.45-1.17-66.69-1.25v-64.53c21.09.16,42.07.98,63.1,2.5,1.53,21.08,2.72,42.16,3.59,63.28Z"/>
    <path class="cls-3" d="m446.41,499.24c-21.08-1.53-42.16-2.72-63.28-3.59-.87-21.12-2.06-42.2-3.59-63.28,19.98,1.75,39.88,3.97,59.69,7.18,3.21,19.81,5.43,39.71,7.18,59.69Z"/>
    <path class="cls-4" d="m505.29,504.92c-19.59-2.31-39.22-4.11-58.88-5.68-1.75-19.98-3.97-39.88-7.18-59.69,18.59,3.19,36.96,6.93,55.29,11.36,4.55,17.89,8.08,35.74,10.76,54.01Z"/>
    <path class="cls-3" d="m558.78,512.44c-17.79-2.85-35.61-5.33-53.49-7.52-2.68-18.27-6.22-36.12-10.76-54.01,16.82,4.41,33.53,9.15,49.9,15.04,6.39,14.92,11.03,30.62,14.35,46.49Z"/>
    <path class="cls-4" d="m448.91,562.35h-64.53c-.08-22.24-.49-44.46-1.25-66.69,21.12.87,42.2,2.06,63.28,3.59,1.53,21.04,2.35,42.01,2.5,63.1Z"/>
    <path class="cls-3" d="m384.38,562.35h-67.94v-67.94c22.24.08,44.46.49,66.69,1.25.76,22.23,1.17,44.45,1.25,66.69Z"/>
    <path class="cls-4" d="m563.78,562.35h-54.74c-.28-19.29-1.5-38.27-3.75-57.42,17.88,2.19,35.7,4.67,53.49,7.52,3.44,16.37,4.91,33.19,5,49.9Z"/>
    <path class="cls-3" d="m509.04,562.35h-60.13c-.16-21.09-.98-42.07-2.5-63.1,19.66,1.57,39.29,3.37,58.88,5.68,2.25,19.16,3.47,38.13,3.75,57.42Z"/>
    <path class="cls-4" d="m383.13,629.04c-22.23.76-44.45,1.17-66.69,1.25v-67.94h67.94c-.08,22.24-.49,44.46-1.25,66.69Z"/>
    <path class="cls-3" d="m446.41,625.45c-21.08,1.53-42.16,2.72-63.28,3.59.76-22.23,1.17-44.45,1.25-66.69h64.53c-.16,21.09-.98,42.07-2.5,63.1Z"/>
    <path class="cls-4" d="m505.29,619.77c-19.59,2.31-39.22,4.11-58.88,5.68,1.52-21.03,2.35-42.01,2.5-63.1h60.13c-.28,19.29-1.5,38.26-3.75,57.42Z"/>
    <path class="cls-3" d="m558.78,612.25c-17.79,2.85-35.61,5.33-53.49,7.52,2.25-19.16,3.47-38.14,3.75-57.42h54.74c.11,16.73-1.77,33.51-5,49.9Z"/>
    <path class="cls-4" d="m439.23,685.14c-19.81,3.21-39.71,5.43-59.69,7.18,1.53-21.08,2.72-42.16,3.59-63.28,21.12-.87,42.2-2.06,63.28-3.59-1.75,19.98-3.92,39.9-7.18,59.69Z"/>
    <path class="cls-3" d="m379.54,692.32c-21.04,1.53-42.01,2.35-63.1,2.5v-64.53c22.24-.08,44.46-.49,66.69-1.25-.87,21.12-2.06,42.2-3.59,63.28Z"/>
    <path class="cls-4" d="m544.43,658.74c-16.37,5.89-33.08,10.63-49.9,15.04,4.55-17.9,8.08-35.75,10.76-54.01,17.88-2.19,35.7-4.67,53.49-7.52-3.13,15.93-8.15,31.51-14.35,46.49Z"/>
    <path class="cls-3" d="m494.53,673.78c-18.33,4.42-36.7,8.17-55.29,11.36,3.25-19.79,5.43-39.71,7.18-59.69,19.66-1.57,39.29-3.37,58.88-5.68-2.68,18.27-6.22,36.11-10.76,54.01Z"/>
    <path class="cls-4" d="m373.86,751.2c-19.16,2.25-38.13,3.47-57.42,3.75v-60.13c21.09-.16,42.07-.98,63.1-2.5-1.57,19.66-3.35,39.3-5.68,58.88Z"/>
    <path class="cls-3" d="m427.88,740.43c-17.89,4.55-35.74,8.08-54.01,10.76,2.33-19.58,4.11-39.22,5.68-58.88,19.98-1.75,39.88-3.97,59.69-7.18-3.19,18.59-6.93,36.95-11.36,55.29Z"/>
    <path class="cls-4" d="m477.49,723.4c-16.3,6.6-32.69,12.2-49.61,17.03,4.43-18.34,8.17-36.7,11.36-55.29,18.59-3.19,36.96-6.93,55.29-11.36-4.83,16.92-10.43,33.3-17.03,49.61Z"/>
    <path class="cls-3" d="m521.72,700.84c-14.1,8.67-29.02,16.06-44.22,22.56,6.61-16.31,12.2-32.7,17.03-49.61,16.82-4.41,33.53-9.15,49.9-15.04-6.09,14.75-13.9,28.81-22.71,42.09Z"/>
    <path class="cls-4" d="m412.84,790.33c-14.92,6.39-30.62,11.03-46.49,14.35,2.85-17.79,5.33-35.61,7.52-53.49,18.27-2.68,36.12-6.22,54.01-10.76-4.42,16.84-9.24,33.48-15.04,49.9Z"/>
    <path class="cls-3" d="m366.34,804.69c-16.37,3.44-33.19,4.91-49.9,5v-54.74c19.29-.28,38.27-1.5,57.42-3.75-2.19,17.88-4.67,35.7-7.52,53.49Z"/>
    <path class="cls-4" d="m491.63,737.54c-11.16,11.22-23.62,21.2-36.7,30.08,8.54-14.17,16.19-28.95,22.56-44.22,15.21-6.5,30.12-13.89,44.22-22.56-8.74,13.2-19,25.42-30.08,36.7Z"/>
    <path class="cls-3" d="m454.93,767.62c-13.19,8.98-27.44,16.45-42.09,22.71,5.8-16.42,10.63-33.06,15.04-49.9,16.92-4.83,33.31-10.43,49.61-17.03-6.37,15.28-14.02,30.05-22.56,44.22Z"/>
  </g>
  <path class="cls-5" d="m317.9,324.99c-.02-39.44-.04-78.88-.03-118.32,0-39.14.04-78.28.13-117.42.05-20.88.14-41.75-.06-62.63-.02-1.93-3.02-1.93-3,0,.36,38.04.01,76.09-.03,114.14s-.05,78.43-.04,117.64c0,22.2.02,44.39.03,66.59,0,1.93,3,1.93,3,0h0Z"/>
  <text class="cls-1" transform="translate(66.88 565.99) rotate(-81.68)"><tspan x="0" y="0">E</tspan></text>
  <text class="cls-1" transform="translate(73.73 491.73) rotate(-60.87)"><tspan x="0" y="0">m</tspan></text>
  <text class="cls-1" transform="translate(126.52 395.05) rotate(-36.05)"><tspan x="0" y="0">m</tspan></text>
  <text class="cls-1" transform="translate(216.71 332.59) rotate(-14.87)"><tspan x="0" y="0">a</tspan></text>
  <text class="cls-1" transform="translate(288.95 315.98) rotate(-4.39)"><tspan x="0" y="0"> </tspan></text>
  <text class="cls-1" transform="translate(304.85 314.75) rotate(-.94)"><tspan x="0" y="0"> </tspan></text>
  <text class="cls-1" transform="translate(320.77 314.47) rotate(2.99)"><tspan x="0" y="0"> </tspan></text>
  <text class="cls-1" transform="translate(567.89 560.7) rotate(99.24)"><tspan x="0" y="0">R</tspan></text>
  <text class="cls-1" transform="translate(555.31 638.83) rotate(116.46)"><tspan x="0" y="0">o</tspan></text>
  <text class="cls-1" transform="translate(523.28 703.31) rotate(132.29)"><tspan x="0" y="0">s</tspan></text>
  <text class="cls-1" transform="translate(479.01 752.62) rotate(147.44)"><tspan x="0" y="0">s</tspan></text>
  <path class="cls-2" d="m109.19,740.2c-47.98,3.31-50.66,6-53.98,53.98-3.31-47.98-6-50.66-53.98-53.98,47.98-3.31,50.66-6,53.98-53.98,3.31,47.98,6,50.66,53.98,53.98Z"/>
  <path class="cls-2" d="m151.98,798.16c-26.67,1.84-28.17,3.33-30.01,30.01-1.84-26.67-3.33-28.17-30.01-30.01,26.67-1.84,28.17-3.33,30.01-30.01,1.84,26.67,3.33,28.17,30.01,30.01Z"/>
  <path class="cls-2" d="m533.23,284.47c-47.98,3.31-50.66,6-53.98,53.98-3.31-47.98-6-50.66-53.98-53.98,47.98-3.31,50.66-6,53.98-53.98,3.31,47.98,6,50.66,53.98,53.98Z"/>
  <path class="cls-2" d="m563.24,371.16c-26.67,1.84-28.17,3.33-30.01,30.01-1.84-26.67-3.33-28.17-30.01-30.01,26.67-1.84,28.17-3.33,30.01-30.01,1.84,26.67,3.33,28.17,30.01,30.01Z"/>
  <text/>
</svg>